<?xml version="1.0" encoding="UTF-8"?><svg id="uuid-aaf55a98-7e59-4af0-9c70-4873c75002ef" xmlns="http://www.w3.org/2000/svg" viewBox="0 0 185 30"><defs><style>.uuid-4b06b230-3d64-4672-ab69-76a637332de4{fill:#7b7b7a;}.uuid-783f5fc8-c980-481a-a450-59436fced07d{fill:none;stroke:#7b7b7a;stroke-width:.56px;}</style></defs><g><path class="uuid-4b06b230-3d64-4672-ab69-76a637332de4" d="M46.06,1.34h8.15c1.02,0,2.03-.04,3.06-.14-.03,.36-.05,.72-.05,1.08s.02,.66,.05,.99c-1.02-.08-2.03-.14-3.06-.14h-3.28v1.01h1.54c1.11,0,2.22-.02,3.35-.07-.05,.61-.07,1.21-.07,1.79v3.28c0,.67,.02,1.33,.07,2-1.13-.03-2.24-.07-3.35-.07h-1.62c-.1,.89-.31,1.64-.58,2.22,.6,.22,1.24,.39,1.95,.51,1.06,.24,2.24,.34,3.53,.34,.41,0,1.03-.02,1.86-.07-.7,.65-1.13,1.4-1.26,2.27-2.37-.22-4.42-.63-6.16-1.24-.37-.12-.72-.26-1.04-.41-.9,.67-2.61,1.26-5.14,1.79-.27-.66-.82-1.26-1.6-1.81,2.25-.27,3.88-.65,4.85-1.12-.63-.44-1.25-.99-1.84-1.61,.77-.17,1.33-.41,1.67-.73,.44,.51,.91,.92,1.38,1.21,.22-.38,.37-.82,.48-1.35h-1.26c-1.13,0-2.24,.03-3.33,.07,.04-.66,.07-1.33,.07-2v-3.28c-.05-.58-.07-1.18-.07-1.79,1.09,.05,2.2,.07,3.33,.07h1.4v-1.01h-3.01c-1.03,0-2.05,.05-3.06,.14,.03-.32,.05-.65,.05-.99,0-.36-.02-.72-.05-1.08,1.01,.1,2.03,.14,3.06,.14Zm3.01,5.46v-.94h-2.73v.94h2.73Zm0,1.67h-2.73v.87h2.73v-.87Zm1.86-1.67h2.87v-.94h-2.87v.94Zm2.87,1.67h-2.87v.87h2.87v-.87Z"/><path class="uuid-4b06b230-3d64-4672-ab69-76a637332de4" d="M66.02,1.73c-.31,.27-.53,.53-.67,.8h4.87c.92,0,1.86-.02,2.8-.07-.68,1.28-1.4,2.29-2.15,3.01-1.06,1.12-2.32,2.06-3.77,2.8,.41,.17,.86,.31,1.33,.41-.44,.21-.75,.41-.92,.6h3.25c.91,0,1.83-.02,2.75-.07-.31,1.2-.67,2.12-1.06,2.77-.51,.87-1.18,1.59-1.96,2.15-1.06,.84-2.73,1.48-5.04,1.96-1.6,.29-3.21,.45-4.81,.45-.31-.96-.72-1.66-1.21-2.14,.85,.14,1.62,.21,2.34,.21,.95,0,2.06-.07,3.35-.24,.79-.12,1.45-.25,2.01-.43-.48-.59-1.03-1.13-1.62-1.6,.65-.27,1.21-.65,1.72-1.13,.45,.65,1.04,1.31,1.81,1.96,.34-.21,.63-.44,.89-.68,.49-.44,.84-.95,1.04-1.55h-5.29c-.79,.63-1.67,1.23-2.65,1.81-.44-.55-1.07-1.01-1.86-1.4,1.4-.58,2.53-1.2,3.35-1.84,.12-.09,.24-.17,.34-.27-1.06,.37-2.32,.73-3.82,1.11-.5-.77-1.07-1.37-1.73-1.79,2.27-.25,4.22-.7,5.86-1.31-.38-.55-.82-1.04-1.33-1.48,.63-.24,1.2-.56,1.67-1.01,.34,.58,.84,1.16,1.47,1.71,1.08-.56,1.98-1.28,2.73-2.17h-4.61c-.31,0-.6,.02-.89,.02-.55,.72-1.13,1.4-1.78,2.05-.44-.55-1.08-1.01-1.86-1.4,.89-.66,1.59-1.36,2.1-2.12,.44-.63,.77-1.28,.96-1.96,.65,.36,1.45,.65,2.41,.87Z"/><path class="uuid-4b06b230-3d64-4672-ab69-76a637332de4" d="M81.06,1.66c-.14,.12-.26,.24-.36,.34,1.32,.92,2.46,1.66,3.43,2.2-.61,.48-1.11,1.04-1.47,1.66-.39-.44-.94-.96-1.66-1.5-.41-.29-.85-.58-1.35-.89-.6,.92-1.26,1.81-2,2.65,.27,.02,.53,.02,.8,.02h2.66c.67,0,1.33-.02,2-.07-.14,.82-.22,1.59-.22,2.29l-.12,2.1c-.04,.61-.15,1.06-.39,1.3-.31,.31-1.09,.58-2.32,.79-.12-.75-.36-1.5-.73-2.27,.56,.05,.99,.07,1.26,.07,.13,0,.27-.05,.37-.19,.09-.1,.14-.27,.14-.48,0,0,.02-.6,.09-1.79h-2.87v5.92c0,.41,.24,.6,.73,.6h1.47c.43,0,.75-.03,.99-.12,.21-.07,.46-.55,.75-1.4,.46,.46,1.14,.85,2.06,1.2-.51,1.02-.95,1.65-1.33,1.89-.26,.15-.72,.24-1.4,.24h-3.21c-1.3,0-1.93-.42-1.93-1.26v-6.41c0-.37-.02-.75-.02-1.12-.1,.1-.19,.19-.26,.26-.44-.51-1.04-.96-1.79-1.33,1.28-.89,2.29-1.84,3.02-2.85,.65-.85,1.11-1.72,1.38-2.63,.61,.32,1.37,.6,2.25,.8Zm5.48,1.67c-.19,.49-.27,1.11-.27,1.86v3.35c0,1.2,.03,2.41,.13,3.61-.36-.04-.72-.07-1.07-.07s-.72,.03-1.06,.07c.08-1.2,.14-2.41,.14-3.61v-2.2c0-1.05-.05-2.08-.14-3.14,.61,.1,1.38,.14,2.27,.14Zm3.33-2c-.24,.56-.34,1.21-.34,1.93V14.08c0,1.04-.29,1.65-.86,1.84-.61,.27-1.42,.42-2.41,.42-.12-.94-.36-1.71-.74-2.34,.65,.05,1.09,.07,1.33,.07,.48,0,.73-.33,.73-1.01V2.94c0-.6-.03-1.2-.07-1.81,.74,.14,1.52,.21,2.34,.21Z"/><path class="uuid-4b06b230-3d64-4672-ab69-76a637332de4" d="M94.61,6.41c.55,0,1.11-.02,1.67-.07-.05,.75-.07,1.52-.07,2.27v4.59c1.5,.68,3.09,1.04,4.75,1.08,2.66,0,5-.15,7-.48-.39,.61-.67,1.39-.8,2.34h-4.34c-2.85,0-5.09-.43-6.69-1.25-.38-.19-.63-.29-.78-.29-.26,0-.65,.48-1.2,1.47-.51-.68-1.13-1.23-1.86-1.6l2-1.28v-4.92c-.56,0-1.13,.03-1.67,.07,.04-.32,.07-.66,.07-1.01s-.03-.65-.07-.99c.67,.05,1.33,.07,2,.07Zm2.08-2.13c-.68,.15-1.33,.48-1.94,.99-.41-1.06-.89-1.98-1.4-2.8,.75-.17,1.38-.46,1.88-.87,.36,.89,.85,1.77,1.47,2.68Zm3.66-2.68c-.14,.24-.33,.65-.55,1.21h1.55v-.14c0-.68-.05-1.38-.14-2.07,.65,.24,1.44,.38,2.34,.39-.24,.42-.34,.99-.34,1.67v.14h1.07c.79,0,1.62-.02,2.53-.07-.05,.31-.07,.6-.07,.87,0,.36,.02,.67,.07,.92-.62-.03-1.45-.07-2.53-.07h-1.07v1.54h1.4c.99,0,2-.03,3-.14-.05,.34-.07,.68-.07,1.01,0,.34,.02,.67,.07,1.01-1.01-.08-2.02-.14-3-.14h-4.87c-1.01,0-2.02,.05-3,.14,.04-.34,.07-.67,.07-1.01,0-.32-.03-.66-.07-1.01,.99,.1,2,.14,3,.14h1.61v-1.54h-2.18c-.14,.37-.27,.75-.41,1.14-.58-.31-1.16-.51-1.74-.6,.51-1.16,.94-2.48,1.26-3.94,.68,.31,1.38,.48,2.07,.53Zm1.01,6.88h2c1.06,0,2.13-.02,3.21-.07-.05,.58-.07,1.16-.07,1.72v1.47c0,.65,.02,1.3,.07,1.95-1.08-.03-2.15-.07-3.21-.07h-2c-1.08,0-2.13,.03-3.19,.07,.03-.65,.05-1.3,.05-1.95v-1.47c-.03-.57-.05-1.14-.05-1.72,1.06,.05,2.12,.07,3.19,.07Zm3.26,1.66h-4.53v1.67h4.53v-1.67Z"/><path class="uuid-4b06b230-3d64-4672-ab69-76a637332de4" d="M121.84,6.55c-.34,.34-.63,.77-.87,1.26-1.13-.92-2.05-1.52-2.8-1.81,.32-.29,.63-.66,.94-1.13,.74,.6,1.64,1.16,2.73,1.67Zm.34,2.92c-1.02,2.22-1.84,4.32-2.48,6.33-.58-.43-1.09-.73-1.54-.92,.89-1.3,1.81-3.35,2.75-6.15,.31,.27,.72,.51,1.27,.73Zm.32-6.8c-.34,.36-.61,.78-.85,1.26-1.07-.86-1.96-1.4-2.68-1.66,.33-.29,.64-.66,.94-1.15,.7,.55,1.57,1.06,2.59,1.54Zm10.35-.34c0,.26,.02,.49,.07,.73-.51-.03-1.02-.07-1.54-.07h-2.37l-.46,1.67h1.09c.73,0,1.47-.02,2.2-.07-.05,.43-.07,.85-.07,1.26v3.81c0,.44,.02,.89,.07,1.33-.73-.03-1.47-.07-2.2-.07h-.46v4.41c0,.37-.19,.63-.55,.8-.34,.17-1.01,.27-2,.27-.02-.61-.19-1.14-.53-1.6,.51,.14,.92,.2,1.21,.2,.33,0,.5-.13,.53-.41v-3.67h-.34c-.73,0-1.47,.03-2.2,.07,.04-.44,.07-.89,.07-1.33v-3.81c-.05-.41-.07-.84-.07-1.26,.65,.05,1.28,.07,1.91,.07l.46-1.67h-3.43v5.74c-.04,1.37-.22,2.64-.55,3.82-.24,.96-.77,2.14-1.59,3.52-.43-.34-.94-.54-1.54-.6,.77-.97,1.35-1.96,1.72-2.95,.41-1.31,.62-2.58,.62-3.79V3.47c0-.6-.05-1.19-.14-1.81,.51,.05,1.02,.07,1.54,.07h7.07c.51,0,1.02-.02,1.54-.07-.05,.24-.07,.46-.07,.67Zm-5.81,10.21c-.75,.82-1.54,1.84-2.34,3.07-.48-.44-.92-.7-1.33-.8,1.01-1.09,1.79-2.12,2.34-3.07,.36,.31,.8,.58,1.33,.8Zm3.46-5.33v-1.35h-3.88v1.35h3.88Zm0,1.06h-3.88v1.47h3.88v-1.47Zm2.74,6.33c-.49,.12-.96,.36-1.4,.73-.63-1.04-1.35-1.95-2.13-2.73,.54-.12,.99-.32,1.33-.6,.54,.85,1.28,1.71,2.2,2.6Z"/><path class="uuid-4b06b230-3d64-4672-ab69-76a637332de4" d="M141.68,1.2c-.43,.37-.84,.97-1.24,1.79h4.37c.78,0,1.55-.03,2.34-.12-.1,.72-.14,1.42-.14,2.14V14.21c0,.75,.03,1.5,.14,2.27-.45-.05-.73-.07-.87-.07-.15,0-.45,.02-.87,.07,.07-.58,.1-1.12,.12-1.67h-8.23c0,.58,.05,1.16,.12,1.72-.44-.03-.73-.05-.87-.05-.16,0-.45,.02-.87,.05,.09-.75,.14-1.5,.14-2.25V5.01c0-.72-.05-1.42-.14-2.14,.77,.08,1.56,.12,2.34,.12h.96c.22-.63,.46-1.38,.7-2.25,.53,.27,1.2,.43,2.02,.46Zm3.86,5.14v-2h-8.26v2h8.26Zm0,3.53v-2.2h-8.26v2.2h8.26Zm0,3.6v-2.27h-8.26v2.27h8.26Z"/><path class="uuid-4b06b230-3d64-4672-ab69-76a637332de4" d="M151.62,4.9h5.44V2.21c0-.48-.05-.98-.12-1.48,.34,.03,.76,.05,1.28,.05-.19,.24-.28,.53-.28,.88v3.24h5.46c.41,0,.84-.03,1.28-.14-.05,.19-.07,.36-.07,.53s.02,.33,.07,.48c-.43-.09-.86-.14-1.28-.14h-4.79c.48,1.67,1.24,3.1,2.27,4.29,1.24,1.41,2.77,2.48,4.6,3.17-.34,.28-.57,.59-.67,.95-1.71-.84-3.22-2.08-4.55-3.72-1.08-1.48-1.83-3.05-2.22-4.69h-.1V14.78c0,.55,.03,1.12,.14,1.69-.21-.05-.41-.07-.6-.07s-.36,.02-.53,.07c.07-.57,.12-1.14,.12-1.69V5.79c-1.38,3.24-3.57,5.98-6.53,8.18-.14-.22-.4-.45-.74-.67,1.65-1,3.05-2.22,4.17-3.67,.91-1.05,1.71-2.38,2.36-4h-4.7c-.43,0-.86,.05-1.28,.14,.04-.15,.07-.31,.07-.48s-.03-.34-.07-.53c.41,.1,.84,.14,1.28,.14Z"/><path class="uuid-4b06b230-3d64-4672-ab69-76a637332de4" d="M168.78,4.69h2.55V2.14c0-.45-.05-.91-.12-1.36h1.21c-.19,.24-.28,.53-.28,.88v3.03h1.83c.17,0,.35-.02,.53-.07-.05,.14-.07,.28-.07,.4,0,.17,.02,.33,.07,.48-.19-.04-.36-.07-.53-.07h-1.83V14.64c0,.52,.03,1.03,.14,1.55-.19-.05-.36-.07-.53-.07-.19,0-.36,.02-.53,.07,.07-.52,.12-1.03,.12-1.55V7.31c-.76,2.24-1.77,4.17-3.01,5.79-.14-.36-.33-.65-.55-.88,.79-.9,1.53-2.07,2.22-3.55,.45-.98,.84-2.07,1.16-3.24h-2.36c-.19,0-.36,.03-.53,.07,.03-.16,.07-.31,.07-.48,0-.12-.03-.26-.07-.4,.17,.05,.34,.07,.53,.07Zm4.89,3.77c.41,.45,.79,.86,1.12,1.22,.24,.28,.43,.52,.59,.72-.22,.07-.52,.22-.88,.47-.12-.24-.46-.71-1.03-1.4-.39-.45-.79-.86-1.19-1.22,.31-.12,.59-.28,.81-.47,.1,.14,.29,.36,.59,.67Zm2.51-3.63h3.64V1.65c0-.24-.04-.48-.07-.74,.35,.05,.72,.07,1.14,.07-.19,.24-.28,.52-.28,.81v3.03h1.36c.41,0,.84-.03,1.27-.14-.05,.19-.07,.36-.07,.53s.02,.33,.07,.48c-.43-.09-.86-.14-1.27-.14h-1.36V15.32c0,.38-.22,.64-.67,.76-.43,.12-1.08,.19-1.95,.19-.08-.41-.24-.74-.47-1.02,.31,.03,.54,.07,.67,.07,1.07,0,1.62-.14,1.62-.4V6.24c-1.31,3.13-3.27,5.77-5.93,7.94-.17-.26-.43-.5-.81-.74,1.55-1.03,2.82-2.29,3.86-3.77,.84-1.07,1.59-2.45,2.2-4.1h-2.96c-.45,0-.88,.05-1.29,.14,.03-.15,.07-.31,.07-.48s-.04-.34-.07-.53c.41,.1,.84,.14,1.29,.14Z"/></g><path class="uuid-4b06b230-3d64-4672-ab69-76a637332de4" d="M111.93,14.86c0,2.31-1.12,3.18-2.39,3.98v-.2c1.4-1.4,1.13-2.6,1.13-2.6h0c-.62-.04-1.11-.55-1.11-1.18s.53-1.18,1.18-1.18,1.18,.53,1.18,1.18v.07"/><path class="uuid-783f5fc8-c980-481a-a450-59436fced07d" d="M184.64,15.25c0,.46-.37,.82-.82,.82s-.82-.37-.82-.82,.37-.82,.82-.82,.82,.37,.82,.82Z"/></svg>