<?xml version="1.0" encoding="UTF-8"?><svg id="uuid-cbf0d845-5469-4741-85a0-d1315380c70c" xmlns="http://www.w3.org/2000/svg" viewBox="0 0 160 37"><defs><style>.uuid-ae35d793-b73e-44f4-9905-b591397811e0{fill:#d4082c;}.uuid-50efe9f7-e1a7-43bf-bc03-53a9985e6ff4,.uuid-393c7642-a5ea-451b-b085-0dae6f48c2a3{fill:#1a1a18;}.uuid-393c7642-a5ea-451b-b085-0dae6f48c2a3{fill-rule:evenodd;}</style></defs><polygon class="uuid-ae35d793-b73e-44f4-9905-b591397811e0" points="35.44 .1 158.54 .1 158.54 12.58 35.44 12.58 35.44 .1 35.44 .1 35.44 .1 35.44 .1"/><path class="uuid-50efe9f7-e1a7-43bf-bc03-53a9985e6ff4" d="M35.44,25.34v11.56h21.92s0-2.23,0-2.46-.14-.31-.32-.32c-.17,0-14.36,0-14.36,0v-4.13h12.45v-2.43c0-.21-.11-.32-.32-.32h-12.12v-4.23h14.67v-2.46c0-.22-.14-.29-.32-.29h-16.55c-2.8,0-5.05,2.27-5.05,5.08h0Z"/><path class="uuid-50efe9f7-e1a7-43bf-bc03-53a9985e6ff4" d="M65.39,20.26h16.74c.21,0,.33,.08,.33,.29v2.45h-14.88v10.85h12.02v-3.88h-7.43v-2.43c0-.17,.12-.31,.34-.31,1.86,0,9.48,0,9.64,0,.17,0,.33,.15,.33,.32v9.34h-22.12v-11.56c0-2.8,2.26-5.08,5.05-5.08h0Z"/><path class="uuid-50efe9f7-e1a7-43bf-bc03-53a9985e6ff4" d="M90.86,20.26h16.74c.21,0,.33,.08,.33,.29v2.45h-14.88v10.85s12.01,0,12.01,0v-3.88h-7.43s0-2.26,0-2.42,.11-.32,.33-.32c1.86,0,9.49,0,9.64,0,.17,0,.33,.15,.33,.32v9.34h-22.12v-11.56c0-2.8,2.26-5.08,5.05-5.08h0Z"/><path class="uuid-50efe9f7-e1a7-43bf-bc03-53a9985e6ff4" d="M111.3,25.34v11.56h21.93v-2.46c0-.22-.14-.31-.32-.32-.17,0-14.36,0-14.36,0v-4.14h12.45v-2.42c0-.21-.11-.32-.32-.32h-12.13v-4.23h14.67v-2.46c0-.22-.14-.29-.32-.29h-16.56c-2.79,0-5.04,2.27-5.04,5.08h0Z"/><polygon class="uuid-ae35d793-b73e-44f4-9905-b591397811e0" points="0 20.26 24.14 20.26 24.14 23.36 11.32 23.36 11.32 26.99 24.14 26.99 24.14 30.2 11.38 30.2 11.38 33.8 24.14 33.8 24.14 36.9 0 36.89 0 20.26 0 20.26 0 20.26"/><path class="uuid-393c7642-a5ea-451b-b085-0dae6f48c2a3" d="M153.18,27.25c.77,0,1.87-.8,1.87-2.12,0-1.46-1.03-2.11-1.87-2.11h-9.77v4.23h9.77s0,0,0,0Zm.99-6.99c2.41,0,4.37,2.44,4.37,4.86s-1.97,4.86-4.38,4.86h-1.97l7.45,6.32s.74,.59-.04,.59h-7.92c-.33,0-.48-.19-.82-.46,.26,.18-7.45-6.45-7.45-6.45v6.91h-7.23v-11.56c0-2.8,2.25-5.08,5.04-5.08h12.96Z"/></svg>